<svg width="22" height="23" viewBox="0 0 22 23" fill="none" xmlns="http://www.w3.org/2000/svg">
<path d="M6.71436 18.6666C6.71436 18.6666 6.71436 22 11.0664 22C15.4185 22 15.4185 18.6666 15.4185 18.6666" stroke="#7B7878" stroke-width="2" stroke-linejoin="round"/>
<path d="M3.8515 7.23098L1.61936 16.1828C1.30468 17.4448 2.2593 18.6667 3.55994 18.6667H6.71429H15.2857H18.4401C19.7407 18.6667 20.6953 17.4448 20.3806 16.1828L18.1485 7.23098C18.1447 7.21588 18.1414 7.20283 18.137 7.18791C18.0325 6.83402 16.5051 2 11 2C5.49489 2 3.96747 6.83401 3.86303 7.18791C3.85862 7.20283 3.85526 7.21588 3.8515 7.23098Z" stroke="#7B7878" stroke-width="2" stroke-linejoin="round"/>
<circle cx="18" cy="3" r="3" fill="#202852"/>
</svg>
